<?xml version="1.0" encoding="utf-8"?>
<!-- Generator: Adobe Illustrator 21.0.2, SVG Export Plug-In . SVG Version: 6.00 Build 0)  -->
<svg version="1.1" id="Layer_1" xmlns="http://www.w3.org/2000/svg" xmlns:xlink="http://www.w3.org/1999/xlink" x="0px" y="0px"
	 viewBox="0 0 30 30" style="enable-background:new 0 0 30 30;" xml:space="preserve">
<style type="text/css">
	.st0{fill:#FFFFFF;}
</style>
<g>
	<polygon class="st0" points="11.8,28.1 11.8,28.1 11.8,28.1 	"/>
	<path class="st0" d="M10,11.3c1.3-0.9,2.7-0.3,3.2,0.4l1.9,2.9h1.4c0.3-0.3,1.2-0.2,1.5,0h0.4c0.1-0.4,0.4-1,0.8-1.2
		c0.5-0.3,1.5-0.5,2.1,0.1c0,0,0,0,0.2,0c-0.1-0.6,0.3-1.1,0.6-1.3c0.8-0.5,1.8-0.4,2.5,0.4l0.3,0.4c1.3-1.1,2-2.6,2-4.4
		c0-3.3-2.6-6-5.8-6H6.2c-3.2,0-5.8,2.7-5.8,6c0,3.3,2.6,6,5.8,6l3.6,0.1l-0.5-1.3C9.2,12,9.5,11.7,10,11.3z"/>
</g>
<g>
	<path class="st0" d="M29.1,20.2L24.8,14c-1.8,1.3-2.9,1.1-2.9,1.1l-2.5,1.7l-5.4,2.8l3.2,4.7c-2.1,0.3-3,0.7-3.8,1.3
		c-1,0.7-1.7,1.7-0.8,2.8l0,0l3.7-0.7l3.3,0.6c1.6,0.3,3.2-0.1,4.6-1l4.2-2.9C29.7,23.5,30,21.6,29.1,20.2z"/>
	<ellipse transform="matrix(0.8235 -0.5673 0.5673 0.8235 -5.3912 14.5045)" class="st0" cx="20.6" cy="15.9" rx="1.6" ry="1.6"/>
	<path class="st0" d="M18.9,16.1c-0.5-0.7-1.5-0.9-2.1-0.4s-0.9,1.5-0.4,2.1c0.1,0.1,0.4,0.5,0.4,0.6c0.5,0.7,1.5,0.9,2.1,0.4
		c0.7-0.5,0.9-1.5,0.4-2.1C19.2,16.6,19,16.2,18.9,16.1z"/>
	<ellipse transform="matrix(0.8235 -0.5673 0.5673 0.8235 -4.235 15.9383)" class="st0" cx="23.5" cy="14.8" rx="1.6" ry="1.6"/>
	<path class="st0" d="M10.8,12.4L10.8,12.4c-0.7,0.5-0.9,1.5-0.4,2.1l3.9,5.6l2.5-1.7l-3.9-5.6C12.4,12.1,11.5,12,10.8,12.4z"/>
</g>
</svg>
