<?xml version="1.0" encoding="utf-8"?>
<!-- Generator: Adobe Illustrator 21.0.2, SVG Export Plug-In . SVG Version: 6.00 Build 0)  -->
<svg version="1.1" id="Calque_1" xmlns="http://www.w3.org/2000/svg" xmlns:xlink="http://www.w3.org/1999/xlink" x="0px" y="0px"
	 viewBox="0 0 24 24" style="enable-background:new 0 0 24 24;" xml:space="preserve">
<style type="text/css">
	.st0{fill:#FFFFFF;}
</style>
<rect x="2" y="6.3" class="st0" width="20" height="15.9"/>
<g>
	<path class="st0" d="M7,2.9l0,2.4H2.5l0-2.4H7 M7.2,2.4H2.3C2.1,2.4,2,2.6,2,2.9v2.6c0,0.2,0.1,0.4,0.3,0.4h4.9
		c0.2,0,0.3-0.2,0.3-0.4V2.9C7.5,2.6,7.3,2.4,7.2,2.4L7.2,2.4z"/>
</g>
<path class="st0" d="M13,2.4H8.2C8,2.4,7.8,2.6,7.8,2.9v2.6c0,0.2,0.1,0.4,0.3,0.4H13c0.2,0,0.3-0.2,0.3-0.4V2.9
	C13.4,2.6,13.2,2.4,13,2.4z"/>
<g>
	<path class="st0" d="M18.7,2.9l0,2.4h-4.5l0-2.4H18.7 M18.9,2.4H14c-0.2,0-0.3,0.2-0.3,0.4v2.6c0,0.2,0.1,0.4,0.3,0.4h4.9
		c0.2,0,0.3-0.2,0.3-0.4V2.9C19.2,2.6,19.1,2.4,18.9,2.4L18.9,2.4z"/>
</g>
</svg>
