<?xml version="1.0" encoding="utf-8"?>
<!-- Generator: Adobe Illustrator 21.0.2, SVG Export Plug-In . SVG Version: 6.00 Build 0)  -->
<svg version="1.1" id="Layer_1" xmlns="http://www.w3.org/2000/svg" xmlns:xlink="http://www.w3.org/1999/xlink" x="0px" y="0px"
	 viewBox="0 0 512 512" style="enable-background:new 0 0 512 512;" xml:space="preserve">
<style type="text/css">
	.st0{fill:#FFFFFF;}
</style>
<path class="st0" d="M480,288h-64c-17.7,0-32-14.3-32-32s14.3-32,32-32h64c17.7,0,32,14.3,32,32S497.7,288,480,288z M391.8,165.5
	c-12.5,12.5-32.8,12.5-45.3,0s-12.5-32.8,0-45.3L391.8,75c12.5-12.5,32.8-12.5,45.3,0s12.5,32.8,0,45.3L391.8,165.5z M256,512
	c-17.7,0-32-14.3-32-32v-64c0-17.7,14.3-32,32-32s32,14.3,32,32v64C288,497.7,273.7,512,256,512z M256,128c-17.7,0-32-14.3-32-32V32
	c0-17.7,14.3-32,32-32s32,14.3,32,32v64C288,113.7,273.7,128,256,128z M120.3,437c-12.5,12.5-32.8,12.5-45.3,0
	c-12.5-12.5-12.5-32.8,0-45.3l45.3-45.3c12.5-12.5,32.8-12.5,45.3,0s12.5,32.8,0,45.3L120.3,437z M120.3,165.5L75,120.2
	C62.5,107.7,62.5,87.5,75,75s32.8-12.5,45.3,0l45.3,45.3c12.5,12.5,12.5,32.8,0,45.3S132.8,178,120.3,165.5z M128,256
	c0,17.7-14.3,32-32,32H32c-17.7,0-32-14.3-32-32s14.3-32,32-32h64C113.7,224,128,238.3,128,256z M391.8,346.5l45.3,45.3
	c12.5,12.5,12.5,32.8,0,45.3c-12.5,12.5-32.8,12.5-45.3,0l-45.3-45.3c-12.5-12.5-12.5-32.8,0-45.3S379.3,334,391.8,346.5z"/>
</svg>
