<?xml version="1.0" encoding="utf-8"?>
<!-- Generator: Adobe Illustrator 21.0.0, SVG Export Plug-In . SVG Version: 6.00 Build 0)  -->
<svg version="1.1" id="Calque_1" xmlns="http://www.w3.org/2000/svg" xmlns:xlink="http://www.w3.org/1999/xlink" x="0px" y="0px"
	 viewBox="0 0 24 24" style="enable-background:new 0 0 24 24;" xml:space="preserve">
<style type="text/css">
	.st0{fill:#FFFFFF;}
</style>
<g>
	<path class="st0" d="M23.6,9.1c0,0-0.5-0.3-0.8-0.4c-0.4-0.2-1.5-0.1-2.1-0.2c-0.5-0.1-1,0-1.5-0.7C18.6,7,18.4,6.3,19,6.1
		c1-0.2,2.2-0.5,3.2,0.2C23.5,7.1,23.7,8,23.6,9.1z"/>
	<path class="st0" d="M22,21.4c0,0-1.5-0.2-2.6-1.2c-0.4-0.3-0.9-1-1-2.1c0-1,0.2-1.6,0.3-2.3c0.1-0.6,0-1.8-0.7-2.5
		c-0.8-0.7-2.4-0.9-3.2-1.7c-0.5-0.4-0.8-1.5-0.8-1.5c-0.7,1.4-1.1,3.1-0.7,5.1c0.2,1.1,0.7,2.1,1.2,2.9c0.7,1.1,1.9,2.1,3.3,2.7
		C19.3,21.4,20.9,21.7,22,21.4z"/>
	<path class="st0" d="M18.4,7.6C18.3,8.5,19,9.4,19,9.9c0,0.6-0.4,1.1-0.8,1.5c-1.3,1.2-3.4,0.4-4.2-1.3c0,0,0.8-1.6,2.5-2.8
		c1.2-0.9,2.4-1.1,2.4-1.1C18.9,6.2,18.5,7.3,18.4,7.6z"/>
	<g>
		<path class="st0" d="M16.3,7.1L3.5,2.5C3.3,3.3,3.6,4.1,4.3,4.8L16.3,7.1z"/>
	</g>
	<path class="st0" d="M0.4,4.4C0.2,6.2,2,8.2,4.6,8.5c1.5,0.1,2.9,0.6,12.3-1L0.4,4.4z"/>
</g>
</svg>
