<?xml version="1.0" encoding="utf-8"?>
<!-- Generator: Adobe Illustrator 21.0.2, SVG Export Plug-In . SVG Version: 6.00 Build 0)  -->
<svg version="1.1" id="Layer_1" xmlns="http://www.w3.org/2000/svg" xmlns:xlink="http://www.w3.org/1999/xlink" x="0px" y="0px"
	 viewBox="0 0 30 30" style="enable-background:new 0 0 30 30;" xml:space="preserve">
<style type="text/css">
	.st0{fill:#FFFFFF;}
	.st1{fill:none;stroke:#FFFFFF;stroke-miterlimit:10;}
</style>
<g>
	<path class="st0" d="M29.2,19.6l-4.4-6.4c-1.9,1.3-3,1.1-3,1.1l-2.6,1.8L13.6,19l3.3,4.8c-2.2,0.3-3.1,0.7-3.9,1.3
		c-1,0.7-1.7,1.7-0.8,2.9l0,0l3.8-0.7l3.4,0.6c1.6,0.3,3.3-0.1,4.7-1l4.3-3C29.9,23,30.2,21,29.2,19.6z"/>
	<ellipse transform="matrix(0.8235 -0.5673 0.5673 0.8235 -4.9921 14.2916)" class="st0" cx="20.5" cy="15.2" rx="1.6" ry="1.6"/>
	<path class="st0" d="M18.7,15.4c-0.5-0.7-1.5-0.9-2.2-0.4s-0.9,1.5-0.4,2.2c0.1,0.1,0.4,0.5,0.4,0.6c0.5,0.7,1.5,0.9,2.2,0.4
		c0.7-0.5,0.9-1.5,0.4-2.2C19.1,15.9,18.8,15.5,18.7,15.4z"/>
	<ellipse transform="matrix(0.8235 -0.5673 0.5673 0.8235 -3.8159 15.8073)" class="st0" cx="23.5" cy="14" rx="1.6" ry="1.6"/>
	<path class="st0" d="M10.4,11.6L10.4,11.6c-0.7,0.5-0.9,1.5-0.4,2.2l4,5.8l2.6-1.8l-4-5.8C12.1,11.3,11.1,11.1,10.4,11.6z"/>
</g>
<circle class="st1" cx="11" cy="12" r="7.1"/>
<circle class="st1" cx="11" cy="12" r="10.3"/>
<circle class="st1" cx="11" cy="12" r="3.4"/>
</svg>
