<?xml version="1.0" encoding="utf-8"?>
<!-- Generator: Adobe Illustrator 22.1.0, SVG Export Plug-In . SVG Version: 6.00 Build 0)  -->
<svg version="1.1" xmlns="http://www.w3.org/2000/svg" xmlns:xlink="http://www.w3.org/1999/xlink" x="0px" y="0px"
	 viewBox="0 0 447.3 197.3" style="enable-background:new 0 0 447.3 197.3;" xml:space="preserve">
<style type="text/css">
	.st0{fill:#83CC2A;}
	.st1{fill:#404137;}
	.st2{fill:#6D6E66;}
	.st3{fill:#505147;}
	.st4{fill:#61625A;}
	.st5{fill:#595A51;}
	.st6{fill:#8FD140;}
	.st7{fill:#46473E;}
	.st8{fill:#FFFFFF;}
</style>
<g id="Calque_2">
	<rect x="0.6" y="1.1" class="st0" width="447.3" height="197.3"/>
</g>
<g id="Calque_1">
	<g>
		<path class="st1" d="M221.6,129.8c-6.6-3.8-13.3-7.7-19.9-11.5c-1.2-0.7-1.8-1.6-1.8-3.1c0-7.2,0-14.5,0-21.7
			c0-1.4,0.5-2.4,1.8-3.1c6.3-3.6,12.7-7.3,19-10.9c1.1-0.6,2.1-0.7,3.2,0c1.4,0.8,2.8,1.6,4.2,2.5c1.1,0.6,1.6,0.3,1.6-0.9
			c0-9.9,0-19.7,0-29.6c0-0.8,0.2-1.4,0.9-1.7c0.3,0,0.6,0,0.9,0c0.6,0.6,1.4,0.9,2.1,1.3c3.1,1.8,6.3,3.5,9.4,5.2
			c1.1,0.6,1.6,1.4,1.6,2.7c0,18.9,0,37.7,0,56.6c0,1.2-0.5,2-1.5,2.6c-6.4,3.7-12.9,7.4-19.3,11.1c-0.3,0.2-0.6,0.3-0.9,0.5
			C222.3,129.8,222,129.8,221.6,129.8z"/>
		<path class="st1" d="M80.5,91.7c0.3-0.9,1-1.4,1.8-1.9c6.3-3.6,12.5-7.2,18.8-10.8c1.2-0.7,2.3-0.7,3.5,0
			c6.3,3.7,12.5,7.3,18.8,10.9c1.2,0.7,1.7,1.6,1.7,3c0,9.8,0,19.7,0,29.5c0,0.2,0,0.3,0,0.5c-0.1,1.2-0.9,1.7-2,1.1
			c-1.7-1-3.5-2-5.2-3c-2-1.2-4.1-2.3-6.1-3.5c-1.1-0.6-1.5-1.4-1.5-2.7c0-4.5,0-9,0-13.5c0-1.3-0.5-2.2-1.6-2.8
			c-1.5-0.8-3-1.7-4.4-2.6c-0.9-0.6-1.9-0.6-2.8,0c-1.5,0.9-3.1,1.8-4.6,2.7c-1,0.5-1.4,1.3-1.4,2.4c0,4.6,0,9.2,0,13.8
			c0,1.2-0.5,2.1-1.5,2.7c-3.7,2.1-7.3,4.2-11,6.3c-1.2,0.7-1.5,0.6-2.3-0.3c0,0,0-0.1,0-0.1c0.2-0.5,0.1-1,0.1-1.5c0-2,0-4,0-6
			c0-1.9,0-3.8,0-5.6c0-1.8,0-3.6,0-5.4c0-1.9,0-3.9,0-5.8c0-1.5,0.1-3.1-0.1-4.6C80.5,93.6,80.5,92.6,80.5,91.7z"/>
		<path class="st2" d="M80.6,116c0,2.3,0,4.5,0,6.8c0,0.2,0.1,0.5-0.1,0.6c0-2.5,0-5,0-7.4C80.6,115.9,80.6,115.9,80.6,116z"/>
		<path class="st3" d="M80.7,99.1c0,1.9,0,3.9,0,5.8c0,0.1-0.1,0.1-0.1,0c0-1.9,0-3.9,0-5.8C80.6,99.1,80.6,99.1,80.7,99.1z"/>
		<path class="st4" d="M80.6,116c0,0-0.1,0-0.1,0c0-1.9,0-3.8,0-5.7c0-0.1,0.1-0.1,0.1,0C80.6,112.2,80.6,114.1,80.6,116z"/>
		<path class="st5" d="M80.6,110.3c0,0-0.1,0-0.1,0c0-1.8,0-3.6,0-5.4c0,0,0.1,0,0.1,0C80.6,106.7,80.6,108.5,80.6,110.3z"/>
		<path class="st6" d="M378.1,83.4c-0.1,0-0.1,0-0.2,0c-0.1-0.1-0.2-0.2-0.2-0.3c-0.1-1.3-0.1-2.6,0-3.9c0-0.1,0.1-0.3,0.2-0.4
			c0,0,0.1,0,0.1,0C378.1,80.3,378.1,81.8,378.1,83.4z"/>
		<path class="st7" d="M80.7,99.1c0,0-0.1,0-0.1,0c0-1.5,0-3.1,0-4.6c0.3,0.2,0.1,0.6,0.1,0.8C80.7,96.6,80.7,97.9,80.7,99.1z"/>
		<path class="st1" d="M259.4,104.1c0-3.7,0-7.4,0-11.2c0-1.2,0.5-2,1.5-2.6c6.4-3.7,12.8-7.4,19.2-11.1c1.1-0.6,2.1-0.6,3.1,0
			c6.4,3.7,12.7,7.4,19.1,11.1c1,0.6,1.5,1.4,1.5,2.6c0,1.7,0,3.4,0,5.1c0,1-0.4,1.8-1.3,2.3c-3.9,2.2-7.7,4.5-11.6,6.7
			c-1.1,0.7-2,0.2-2-1.2c0-1.7,0-3.4,0-5.1c0-0.7-0.2-1.2-0.9-1.5c-1.9-1.1-3.8-2.2-5.7-3.3c-0.6-0.4-1.1-0.3-1.7,0
			c-1.9,1.1-3.8,2.2-5.7,3.3c-0.7,0.4-0.9,0.9-0.9,1.6c0,2.1,0,4.3,0,6.4c0,0.8,0.3,1.3,1,1.7c6.3,3.6,12.7,7.3,19,10.9
			c0.6,0.3,1.3,0.6,1.3,1.5c0,0.8-0.7,1.1-1.3,1.4c-3.6,2-7.2,4-10.8,6c-1.1,0.6-2.1,0.6-3.3,0c-6.3-3.6-12.6-7.2-18.9-10.8
			c-1.2-0.7-1.7-1.5-1.7-2.9C259.4,111.4,259.4,107.7,259.4,104.1z"/>
		<path class="st8" d="M335.4,106c0,3.3,0,6.6,0,9.9c0,0.8,0,1.5-0.2,2.3c-0.8,3-3.2,4.1-6.3,3.8c-1.3-0.1-2.5-0.7-3.7-1.3
			c-1.4-0.8-2.9-1.7-4.3-2.5c-1.5-0.8-2.2-2.1-2.2-3.8c0-7,0-14.1,0-21.1c0-1.8,0.8-3.1,2.4-4c6-3.5,12.1-7,18.1-10.4
			c1.5-0.9,3-0.9,4.5,0c6,3.5,12,7,18.1,10.4c1.7,0.9,2.4,2.3,2.4,4.2c0,6.9,0,13.8,0,20.7c0,1.9-0.7,3.2-2.4,4.2
			c-6,3.4-11.9,6.8-17.8,10.3c-1.7,1-3.3,1-5,0c-1.9-1.2-3.8-2.2-5.7-3.4c-0.2-0.1-0.6-0.2-0.5-0.5c0-0.3,0.4-0.3,0.6-0.4
			c0.8-0.3,1.5-0.6,2.2-1c0.4-0.3,0.8-0.2,1.2,0c1.4,0.8,2.8,1.6,4.1,2.5c0.4,0.3,0.8,0.3,1.2,0c6-3.5,12.1-7,18.2-10.5
			c0.4-0.2,0.6-0.5,0.6-1c0-7,0-14,0-21c0-0.5-0.2-0.8-0.6-1.1c-6.1-3.5-12.1-7-18.2-10.5c-0.4-0.3-0.8-0.2-1.2,0
			c-6,3.5-12,6.9-18,10.4c-0.5,0.3-0.7,0.7-0.7,1.2c0,6.9,0,13.8,0,20.7c0,0.6,0.2,0.9,0.7,1.2c1.5,0.8,3,1.8,4.5,2.6
			c0.8,0.5,1.7,0.8,2.7,0.6c1.4-0.2,2.1-1.2,2.1-2.6c0-4.5,0-9,0-13.5c0-2.4,0-4.9,0-7.3c0-0.7,0.2-1,0.9-0.9c0.5,0,1.1,0,1.6,0
			c0.7,0,0.9,0.2,0.9,0.9C335.4,98.8,335.4,102.4,335.4,106z"/>
		<path class="st8" d="M346.8,93.6c1.5,0,3.2,0.2,4.9,0.9c2.5,1,3.7,2.9,4,5.5c0.1,0.5-0.2,0.8-0.7,0.8c-0.7,0-1.4,0-2.1,0
			c-0.4,0-0.6-0.2-0.7-0.6c-0.4-1.8-1.4-3-4.1-3.2c-1.5-0.1-2.9-0.1-4.4,0.2c-1.4,0.3-2.1,1.1-2.1,2.2c0,1,0.2,1.3,1.1,1.7
			c1.4,0.5,2.8,0.7,4.3,0.9c1.9,0.3,3.8,0.5,5.6,1.1c1.9,0.6,3.4,1.6,3.8,3.7c0.6,3.4-1,6-4.6,7.1c-3.3,1-6.7,0.9-10-0.1
			c-2.7-0.8-4.3-2.7-4.6-5.5c-0.1-0.9,0.1-1.1,1-1.1c0.6,0,1.2,0,1.8,0c0.4,0,0.7,0.2,0.7,0.6c0.3,2.1,1.6,3.1,3.6,3.4
			c2,0.3,4,0.3,5.9-0.1c1.1-0.2,2.1-0.7,2.5-2c0.3-1.3,0-2-1.2-2.5c-1.4-0.6-3-0.7-4.5-0.9c-1.5-0.2-3.1-0.3-4.6-0.7
			c-3-0.8-4.4-2.3-4.4-5c-0.1-2.7,1.5-4.7,4.3-5.6C343.6,93.8,345,93.6,346.8,93.6z"/>
		<path class="st8" d="M285.8,104c0.7,1.9-0.4,2.8-1.9,3.7c-1.6,1-2.8,1-4.4,0c-1.6-0.9-2.1-1.9-2.2-3.7c0-1.9,0.6-2.9,2.2-3.8
			c1.6-0.9,2.7-1,4.3,0C285.3,101.1,286.5,102,285.8,104z"/>
		<path class="st8" d="M377.9,78.8c0,1.5,0,3.1,0,4.6c-0.5,0.1-0.5-0.2-0.5-0.5c0-1,0-2-0.1-3c-0.4,1-0.7,2-1.1,3.1
			c-0.1,0.3-0.1,0.5-0.5,0.5c-0.3,0-0.4-0.3-0.4-0.5c-0.3-1-0.7-2-1.2-3.1c0,1,0,2,0,3c0,0.2,0.1,0.5-0.3,0.5
			c-0.4,0-0.3-0.3-0.3-0.5c0-1.2,0-2.4,0-3.6c0-0.2-0.1-0.5,0.3-0.5c0.3,0,0.6,0,0.8,0.4c0.3,1.1,0.7,2.2,1.2,3.5
			c0.4-1.2,0.8-2.2,1.1-3.2C377.1,78.9,377.3,78.6,377.9,78.8z"/>
		<path class="st8" d="M370.8,81.3c0-0.5,0-0.9,0-1.4c0.1-0.5-0.2-0.7-0.7-0.6c-0.1,0-0.3,0-0.4,0c-0.2,0-0.4,0-0.4-0.3
			c0-0.3,0.2-0.2,0.4-0.2c1,0,2,0,3,0c0.2,0,0.4,0,0.4,0.2c0,0.3-0.2,0.3-0.4,0.3c-1.2,0.1-1.2,0.1-1.2,1.3c0,0.8,0,1.5,0,2.3
			c0,0.2,0.1,0.5-0.3,0.5c-0.4,0-0.3-0.3-0.3-0.5C370.8,82.4,370.8,81.8,370.8,81.3z"/>
		<path class="st8" d="M184.8,104c0,3.7,0,7.4,0,11.2c0,1.2-0.5,2-1.5,2.6c-6.3,3.6-12.6,7.2-18.8,10.9c-1.4,0.8-2.5,0.8-3.9,0
			c-6.1-3.6-12.3-7.2-18.5-10.7c-1.4-0.8-2-1.8-1.9-3.3c0.1-7.2,0-14.4,0-21.6c0-1.4,0.5-2.3,1.8-3.1c6.4-3.6,12.7-7.3,19-10.9
			c1.1-0.6,2.1-0.6,3.1,0c6.4,3.7,12.8,7.4,19.3,11.1c1,0.6,1.5,1.4,1.5,2.5C184.8,96.5,184.8,100.2,184.8,104z"/>
	</g>
</g>
</svg>
