<?xml version="1.0" encoding="utf-8"?>
<!-- Generator: Adobe Illustrator 21.0.2, SVG Export Plug-In . SVG Version: 6.00 Build 0)  -->
<svg version="1.1" id="Calque_1" xmlns="http://www.w3.org/2000/svg" xmlns:xlink="http://www.w3.org/1999/xlink" x="0px" y="0px"
	 viewBox="0 0 24 24" style="enable-background:new 0 0 24 24;" xml:space="preserve">
<style type="text/css">
	.st0{display:none;}
	.st1{display:inline;}
	.st2{clip-path:url(#SVGID_2_);}
	.st3{fill:#FFFFFF;}
</style>
<g id="Calque_1_1_" class="st0">
	<g class="st1">
		<g>
			<defs>
				<rect id="SVGID_1_" y="0" width="24" height="24"/>
			</defs>
			<clipPath id="SVGID_2_">
				<use xlink:href="#SVGID_1_"  style="overflow:visible;"/>
			</clipPath>
			<path class="st2" d="M2.5,4v3h5v12h3V7h5V4H2.5z M21.5,9h-9v3h3v7h3v-7h3V9z"/>
		</g>
	</g>
</g>
<g id="Calque_2">
	<g>
		<path class="st3" d="M8.4,13.9h-4l-0.8,2.3H1.1L5.3,4.9h2.1l4.2,11.2H9.2L8.4,13.9z M5,12h2.8L6.4,7.8L5,12z"/>
		<path class="st3" d="M17.3,13.5c0,0.9-0.2,1.6-0.6,2.1c-0.4,0.5-0.9,0.7-1.6,0.7c-0.6,0-1.1-0.2-1.4-0.7l-0.1,0.6h-1.3V8.3h1.5
			v2.8c0.3-0.4,0.8-0.6,1.4-0.6c0.7,0,1.2,0.2,1.6,0.7C17.1,11.8,17.3,12.5,17.3,13.5L17.3,13.5z M15.8,13.3c0-0.6-0.1-1-0.3-1.2
			s-0.4-0.4-0.8-0.4c-0.5,0-0.8,0.2-1,0.6v2.2c0.2,0.4,0.5,0.6,1,0.6s0.8-0.2,0.9-0.7C15.8,14.2,15.8,13.8,15.8,13.3z"/>
		<path class="st3" d="M20.5,15.1c0.3,0,0.5-0.1,0.7-0.2c0.2-0.2,0.3-0.4,0.3-0.6h1.4c0,0.4-0.1,0.7-0.3,1c-0.2,0.3-0.5,0.6-0.8,0.7
			c-0.4,0.2-0.7,0.3-1.2,0.3c-0.8,0-1.4-0.3-1.9-0.8C18.2,15,18,14.3,18,13.4v-0.1c0-0.9,0.2-1.5,0.7-2.1s1.1-0.8,1.9-0.8
			c0.7,0,1.3,0.2,1.7,0.6c0.4,0.4,0.6,0.9,0.6,1.6h-1.4c0-0.3-0.1-0.5-0.3-0.7c-0.2-0.2-0.4-0.3-0.7-0.3c-0.3,0-0.6,0.1-0.8,0.4
			c-0.2,0.3-0.3,0.7-0.3,1.2v0.2c0,0.6,0.1,1,0.3,1.2C19.9,15,20.2,15.1,20.5,15.1z"/>
	</g>
</g>
</svg>
