<?xml version="1.0" encoding="utf-8"?>
<!-- Generator: Adobe Illustrator 21.0.2, SVG Export Plug-In . SVG Version: 6.00 Build 0)  -->
<svg version="1.1" id="Calque_1" xmlns="http://www.w3.org/2000/svg" xmlns:xlink="http://www.w3.org/1999/xlink" x="0px" y="0px"
	 viewBox="0 0 24 24" style="enable-background:new 0 0 24 24;" xml:space="preserve">
<style type="text/css">
	.st0{fill:#FFFFFF;}
	.st1{fill:none;stroke:#FFFFFF;stroke-width:1.5;stroke-miterlimit:10;}
</style>
<g>
	<path class="st0" d="M15.3,3.9l2.1,2.1l0.4,0.4h0.6h2.4v13.6H3.1V6.4H12h0.6L13,6L15.3,3.9 M15.4,1.8l-3.4,3H2.9
		c-0.7,0-1.2,0.5-1.2,1.2v14.2c0,0.7,0.5,1.2,1.2,1.2h18.3c0.7,0,1.2-0.5,1.2-1.2V6.1c0-0.7-0.5-1.2-1.2-1.2h-2.7L15.4,1.8L15.4,1.8
		z"/>
</g>
<g>
	<line class="st1" x1="2.8" y1="10.6" x2="21.3" y2="10.6"/>
</g>
<g>
	<line class="st1" x1="2.5" y1="15.6" x2="21.1" y2="15.6"/>
</g>
</svg>
